<svg width="16" height="16" viewBox="0 0 16 16" fill="none" xmlns="http://www.w3.org/2000/svg">
<path d="M5.70468 11.5974C5.81226 11.5162 6.13342 11.2736 6.31856 11.1291C6.68937 10.8397 7.1821 10.4443 7.67336 10.0178C8.16711 9.58907 8.64797 9.13873 9.00146 8.73865C9.17872 8.53804 9.3134 8.36182 9.40107 8.2164C9.48352 8.07963 9.50066 7.99884 9.50066 7.99884C9.50066 7.99884 9.48352 7.92043 9.40107 7.78366C9.31341 7.63825 9.17872 7.46202 9.00147 7.26141C8.64797 6.86134 8.1671 6.411 7.67335 5.9823C7.18209 5.55577 6.68935 5.16036 6.31854 4.87098C6.1334 4.72649 5.81269 4.48423 5.70511 4.40297C5.48276 4.23921 5.4348 3.92588 5.59855 3.70353C5.76231 3.48118 6.07531 3.43368 6.29766 3.59744L6.29935 3.59871C6.41219 3.68394 6.74486 3.93521 6.93377 4.08263C7.31296 4.37855 7.82023 4.7855 8.32896 5.2272C8.83521 5.66675 9.35435 6.15053 9.75085 6.59928C9.94859 6.82308 10.1264 7.04994 10.2575 7.26738C10.3803 7.4711 10.5012 7.72903 10.5012 8.00004C10.5012 8.27104 10.3803 8.52897 10.2575 8.73269C10.1264 8.95013 9.94859 9.17699 9.75085 9.40079C9.35435 9.84953 8.83522 10.3333 8.32897 10.7729C7.82024 11.2146 7.31298 11.6215 6.93379 11.9174C6.74476 12.065 6.41207 12.3162 6.29947 12.4013L6.29801 12.4024C6.07566 12.5662 5.76235 12.5189 5.59859 12.2965C5.43484 12.0742 5.48235 11.7612 5.70468 11.5974Z" fill="#AAAAAA"/>
</svg>
