<svg width="16" height="16" viewBox="0 0 16 16" fill="none" xmlns="http://www.w3.org/2000/svg">
<path d="M8 2C8.29544 2.00002 8.5587 2.1299 8.7396 2.23895C8.93881 2.35904 9.14051 2.518 9.33281 2.68791C9.71893 3.02908 10.1304 3.47126 10.4994 3.89626C10.8713 4.32457 11.2133 4.75093 11.4616 5.06902C11.5847 5.22685 11.7954 5.50575 11.8681 5.60201L11.8701 5.60466C12.0884 5.90113 12.0251 6.31846 11.7286 6.5368C11.4322 6.75513 11.0149 6.69181 10.7965 6.39539C10.7295 6.30663 10.5299 6.04242 10.4104 5.88931C10.1709 5.5824 9.84429 5.17542 9.49263 4.7704C9.21564 4.45137 8.93108 4.14283 8.66667 3.88776L8.66667 13.3333C8.66667 13.7015 8.36819 14 8 14C7.63181 14 7.33333 13.7015 7.33333 13.3333L7.33333 3.88776C7.06892 4.14283 6.78436 4.45137 6.50737 4.7704C6.15571 5.17542 5.8291 5.5824 5.58958 5.88931C5.4701 6.04242 5.27051 6.30663 5.20347 6.39539C4.98512 6.69181 4.56782 6.75512 4.27137 6.5368C3.97491 6.31846 3.91157 5.90113 4.12991 5.60466L4.13178 5.60219C4.20448 5.50593 4.41527 5.22685 4.53845 5.06902C4.78668 4.75093 5.12869 4.32457 5.50056 3.89626C5.86956 3.47126 6.28107 3.02908 6.66719 2.68791C6.85949 2.518 7.06119 2.35904 7.2604 2.23895C7.4413 2.12989 7.70455 2.00001 8 2C8.00001 2 7.99999 2 8 2Z" fill="#111111"/>
</svg>
