<svg width="16" height="16" viewBox="0 0 16 16" fill="none" xmlns="http://www.w3.org/2000/svg">
<path d="M8.03623 0.833496C9.26245 0.833487 10.2318 0.833479 10.9901 0.931701C11.7684 1.03252 12.3995 1.24465 12.899 1.72592C13.4012 2.2097 13.6249 2.82511 13.7307 3.58366C13.8332 4.31783 13.8332 5.25488 13.8332 6.43313V12.0307C13.8332 12.7624 13.8332 13.3704 13.763 13.8272C13.6903 14.2998 13.5208 14.7599 13.0535 15.0094C12.6367 15.232 12.1782 15.1867 11.7896 15.0687C11.3964 14.9494 10.9968 14.7328 10.6309 14.5016C10.2616 14.2682 9.86238 13.9747 9.54748 13.742C9.23894 13.5139 8.99112 13.3307 8.80191 13.2168C8.53554 13.0564 8.36734 12.9558 8.231 12.8916C8.10517 12.8323 8.04404 12.8229 7.99984 12.8229C7.95564 12.8229 7.89452 12.8323 7.76868 12.8916C7.63234 12.9558 7.46415 13.0564 7.19777 13.2168C7.00856 13.3307 6.76074 13.5139 6.4522 13.742C6.1373 13.9747 5.7381 14.2682 5.36874 14.5016C5.00286 14.7328 4.60326 14.9494 4.21013 15.0687C3.82144 15.1867 3.36301 15.232 2.94622 15.0094C2.47888 14.7599 2.30942 14.2998 2.23672 13.8272C2.16646 13.3704 2.16648 12.7624 2.1665 12.0307L2.16651 6.43311C2.16649 5.25487 2.16648 4.31783 2.26894 3.58366C2.37479 2.82511 2.5985 2.2097 3.10065 1.72592C3.60018 1.24465 4.23125 1.03252 5.00955 0.931701C5.76784 0.833479 6.73723 0.833487 7.96345 0.833496H8.03623Z" fill="white"/>
</svg>
