<svg width="16" height="16" viewBox="0 0 16 16" fill="none" xmlns="http://www.w3.org/2000/svg">
<path fill-rule="evenodd" clip-rule="evenodd" d="M7.96357 0.833496H8.03635C9.26257 0.833487 10.232 0.833479 10.9902 0.931701C11.7686 1.03252 12.3996 1.24465 12.8992 1.72592C13.4013 2.2097 13.625 2.82511 13.7309 3.58366C13.8333 4.31783 13.8333 5.25488 13.8333 6.43313V12.0307C13.8333 12.7624 13.8333 13.3704 13.7631 13.8272C13.6904 14.2998 13.5209 14.7599 13.0536 15.0094C12.6368 15.232 12.1784 15.1867 11.7897 15.0687C11.3965 14.9494 10.9969 14.7328 10.6311 14.5016C10.2617 14.2682 9.89953 14.0021 9.58464 13.7694L9.5476 13.742C9.23906 13.5139 8.99125 13.3307 8.80203 13.2168C8.53566 13.0564 8.36746 12.9558 8.23112 12.8916C8.10529 12.8323 8.04416 12.8229 7.99996 12.8229C7.95576 12.8229 7.89464 12.8323 7.7688 12.8916C7.63246 12.9558 7.46427 13.0564 7.19789 13.2168C7.00868 13.3307 6.76086 13.5139 6.45232 13.742L6.41529 13.7694C6.10039 14.0021 5.73822 14.2682 5.36886 14.5016C5.00298 14.7328 4.60338 14.9494 4.21025 15.0687C3.82156 15.1867 3.36313 15.232 2.94634 15.0094C2.479 14.7599 2.30954 14.2998 2.23684 13.8272C2.16658 13.3704 2.1666 12.7624 2.16663 12.0307L2.16663 6.43311C2.16662 5.25487 2.16661 4.31783 2.26906 3.58366C2.37491 2.82511 2.59862 2.2097 3.10077 1.72592C3.6003 1.24465 4.23137 1.03252 5.00967 0.931701C5.76796 0.833479 6.73735 0.833487 7.96357 0.833496ZM5.13813 1.92342C4.46409 2.01072 4.0761 2.17484 3.79459 2.44606C3.51568 2.71477 3.34887 3.08117 3.25946 3.72187C3.16777 4.37892 3.16663 5.24607 3.16663 6.47185V11.9874C3.16663 12.7736 3.16806 13.3035 3.22522 13.6751C3.28133 14.0399 3.36949 14.1017 3.41738 14.1273C3.49946 14.1711 3.64913 14.194 3.91975 14.1118C4.18592 14.031 4.49684 13.8697 4.83467 13.6562C5.16902 13.4449 5.50374 13.1996 5.82092 12.9652C5.84087 12.9504 5.86082 12.9357 5.88076 12.9209C6.16695 12.7092 6.45049 12.4995 6.68204 12.3601L6.70162 12.3483C6.94259 12.2032 7.15461 12.0755 7.34263 11.9869C7.54623 11.891 7.75737 11.8229 7.99996 11.8229C8.24256 11.8229 8.4537 11.891 8.65729 11.9869C8.84531 12.0755 9.05733 12.2032 9.2983 12.3483L9.31788 12.3601C9.54943 12.4995 9.83297 12.7092 10.1192 12.9209C10.1391 12.9357 10.1591 12.9504 10.179 12.9652C10.4962 13.1996 10.8309 13.4449 11.1653 13.6562C11.5031 13.8697 11.814 14.031 12.0802 14.1118C12.3508 14.194 12.5005 14.1711 12.5825 14.1273C12.6304 14.1017 12.7186 14.0399 12.7747 13.6751C12.8319 13.3035 12.8333 12.7736 12.8333 11.9874V6.47185C12.8333 5.24607 12.8322 4.37892 12.7405 3.72187C12.6511 3.08117 12.4842 2.71477 12.2053 2.44606C11.9238 2.17484 11.5358 2.01072 10.8618 1.92342C10.1752 1.83448 9.27067 1.8335 7.99996 1.8335C6.72925 1.8335 5.8247 1.83448 5.13813 1.92342Z" fill="#AAAAAA"/>
</svg>
