<svg width="16" height="16" viewBox="0 0 16 16" fill="none" xmlns="http://www.w3.org/2000/svg">
<path d="M8.09734 1.1665C8.47751 1.16648 8.80999 1.16693 9.08366 1.20264C9.38187 1.24155 9.66003 1.32775 9.90886 1.53271C10.1518 1.73295 10.3001 1.9911 10.4176 2.27979C10.5298 2.55521 10.6324 2.90591 10.7546 3.32471L10.8053 3.49951H12.4469C12.8563 3.49936 13.1479 3.49955 13.3932 3.55615C14.0797 3.71465 14.6651 4.20851 14.8073 4.89795C14.8574 5.14099 14.8238 5.41658 14.7848 5.73779C14.782 5.7612 14.7789 5.78518 14.776 5.80908C14.7137 6.32873 14.5321 6.77149 14.2038 7.12939L14.3239 8.51123C14.4384 9.83926 14.5287 10.8862 14.4919 11.7075C14.4541 12.5482 14.2809 13.2367 13.7995 13.7925C13.3143 14.3524 12.6683 14.6016 11.8649 14.7192C11.0871 14.8331 10.0851 14.8335 8.82487 14.8335H7.17448C5.91442 14.8335 4.91316 14.8331 4.13542 14.7192C3.33168 14.6016 2.68517 14.3527 2.19987 13.7925C1.71846 13.2367 1.54622 12.5482 1.50847 11.7075C1.47159 10.8862 1.56191 9.83925 1.67644 8.51123L1.7946 7.13037C1.46618 6.77243 1.28465 6.32883 1.22234 5.80908C1.21947 5.78521 1.21736 5.76117 1.21452 5.73779C1.1756 5.41656 1.142 5.141 1.19206 4.89795C1.33426 4.20844 1.91959 3.71457 2.60612 3.55615C2.85144 3.49956 3.14217 3.49936 3.55144 3.49951H5.19402L5.2448 3.32471C5.36692 2.90595 5.46961 2.55519 5.58171 2.27979C5.69925 1.99107 5.84748 1.73294 6.0905 1.53271C6.33933 1.32775 6.61749 1.24155 6.9157 1.20264C7.18925 1.16698 7.52114 1.16648 7.90105 1.1665H8.09734ZM13.2546 7.76221C13.1225 7.81614 12.985 7.86545 12.8415 7.90771L10.0612 8.72607C10.0363 8.7334 10.0113 8.74136 9.98698 8.74854C9.10709 9.0077 8.56649 9.16647 7.99968 9.1665C7.43286 9.1665 6.89222 9.00769 6.01237 8.74854C5.98799 8.74135 5.96307 8.73341 5.93816 8.72607L3.15788 7.90771C3.01413 7.86539 2.87601 7.81624 2.74382 7.76221L2.67546 8.56006C2.557 9.93372 2.47391 10.9148 2.50749 11.6626C2.54054 12.3986 2.68503 12.8245 2.95573 13.1372C3.22269 13.4454 3.60061 13.6305 4.27995 13.73C4.97686 13.832 5.90501 13.8335 7.2155 13.8335H8.78386C10.0944 13.8335 11.0225 13.832 11.7194 13.73C12.3989 13.6305 12.7766 13.4454 13.0436 13.1372C13.3145 12.8245 13.4598 12.3988 13.4928 11.6626C13.5264 10.9147 13.4424 9.93373 13.3239 8.56006L13.2546 7.76221ZM3.61784 4.49951C3.11508 4.49951 2.94968 4.50332 2.83073 4.53076C2.44086 4.62081 2.21865 4.87146 2.17155 5.1001C2.15901 5.16102 2.1635 5.25615 2.2155 5.68994C2.25914 6.05398 2.37668 6.29526 2.54851 6.47412C2.7277 6.66051 3.00578 6.82086 3.44011 6.94873L6.22038 7.76709C7.19763 8.05479 7.59408 8.1665 7.99968 8.1665C8.40518 8.16647 8.80111 8.05469 9.778 7.76709L12.5592 6.94873C12.9937 6.82083 13.2717 6.66057 13.4509 6.47412C13.6227 6.29526 13.7392 6.05398 13.7829 5.68994C13.8349 5.25623 13.8403 5.16102 13.8278 5.1001C13.7807 4.87139 13.5577 4.62075 13.1676 4.53076C13.0487 4.50339 12.8836 4.49951 12.3815 4.49951H3.61784ZM7.93132 2.1665C7.51236 2.1665 7.24597 2.16757 7.0446 2.19385C6.86065 2.21785 6.78294 2.25751 6.72624 2.3042C6.66386 2.35559 6.59463 2.44269 6.50749 2.65674C6.42616 2.85655 6.34782 3.12067 6.23698 3.49951H9.76237C9.65153 3.12061 9.57223 2.85657 9.49089 2.65674C9.40388 2.44306 9.33543 2.35559 9.27312 2.3042C9.21645 2.25752 9.13848 2.21786 8.95476 2.19385C8.75344 2.16758 8.48682 2.1665 8.06804 2.1665H7.93132Z" fill="#AAAAAA"/>
</svg>
