<svg width="16" height="16" viewBox="0 0 16 16" fill="none" xmlns="http://www.w3.org/2000/svg">
<path d="M6.36572 0.833496C7.43374 0.833488 8.28027 0.833497 8.94971 0.912598C9.63688 0.993824 10.2027 1.16454 10.6753 1.55225C10.8356 1.68383 10.9832 1.83136 11.1147 1.9917C11.4822 2.43955 11.6545 2.97128 11.7407 3.61084C11.8107 4.13024 11.8264 4.75545 11.8306 5.5083C12.2459 5.51697 12.6108 5.53496 12.9282 5.57764C13.5282 5.65833 14.0338 5.8307 14.4351 6.23193C14.8363 6.63317 15.0087 7.13878 15.0894 7.73877C15.1671 8.3167 15.1665 9.05175 15.1665 9.96338V10.7036C15.1665 11.6152 15.1671 12.3503 15.0894 12.9282C15.0087 13.5282 14.8363 14.0338 14.4351 14.4351C14.0338 14.8363 13.5282 15.0087 12.9282 15.0894C12.3503 15.1671 11.6152 15.1665 10.7036 15.1665H9.96338C9.05175 15.1665 8.3167 15.1671 7.73877 15.0894C7.13878 15.0087 6.63317 14.8363 6.23193 14.4351C5.8307 14.0338 5.65833 13.5282 5.57764 12.9282C5.53496 12.6108 5.51697 12.2459 5.5083 11.8306C4.75545 11.8264 4.13024 11.8107 3.61084 11.7407C2.97128 11.6545 2.43955 11.4822 1.9917 11.1147C1.83136 10.9832 1.68383 10.8356 1.55225 10.6753C1.16454 10.2027 0.993824 9.63688 0.912598 8.94971C0.833497 8.28027 0.833488 7.43375 0.833496 6.36572V6.30127C0.833488 5.23325 0.833497 4.38672 0.912598 3.71729C0.993824 3.03011 1.16454 2.46427 1.55225 1.9917C1.68383 1.83136 1.83136 1.68383 1.9917 1.55225C2.46427 1.16454 3.03011 0.993824 3.71729 0.912598C4.38672 0.833497 5.23325 0.833488 6.30127 0.833496H6.36572ZM10.0005 6.50049C9.04375 6.50049 8.37609 6.50119 7.87256 6.56885C7.38337 6.63462 7.12445 6.75543 6.93994 6.93994C6.75543 7.12445 6.63462 7.38338 6.56885 7.87256C6.50119 8.37609 6.50049 9.04375 6.50049 10.0005V10.6665C6.50049 11.6232 6.50119 12.2909 6.56885 12.7944C6.63462 13.2836 6.75543 13.5425 6.93994 13.7271C7.12445 13.9116 7.38337 14.0324 7.87256 14.0981C8.37609 14.1658 9.04375 14.1665 10.0005 14.1665H10.6665C11.6232 14.1665 12.2909 14.1658 12.7944 14.0981C13.2836 14.0324 13.5425 13.9116 13.7271 13.7271C13.9116 13.5425 14.0324 13.2836 14.0981 12.7944C14.1658 12.2909 14.1665 11.6232 14.1665 10.6665V10.0005C14.1665 9.04375 14.1658 8.37609 14.0981 7.87256C14.0324 7.38337 13.9116 7.12445 13.7271 6.93994C13.5425 6.75543 13.2836 6.63462 12.7944 6.56885C12.2909 6.50119 11.6232 6.50049 10.6665 6.50049H10.0005ZM6.3335 1.8335C5.22547 1.8335 4.4384 1.83438 3.83447 1.90576C3.24157 1.97585 2.89042 2.10826 2.62549 2.32568C2.51598 2.41558 2.41558 2.51598 2.32568 2.62549C2.10826 2.89042 1.97585 3.24157 1.90576 3.83447C1.83438 4.4384 1.8335 5.22547 1.8335 6.3335C1.8335 7.44152 1.83438 8.22859 1.90576 8.83252C1.97585 9.42542 2.10826 9.77657 2.32568 10.0415C2.41558 10.151 2.51598 10.2514 2.62549 10.3413C2.8767 10.5475 3.20537 10.6769 3.74365 10.7495C4.19644 10.8105 4.76021 10.8262 5.50049 10.8306V9.96338C5.50047 9.05175 5.49994 8.31671 5.57764 7.73877C5.65833 7.13878 5.8307 6.63317 6.23193 6.23193C6.63317 5.8307 7.13878 5.65833 7.73877 5.57764C8.3167 5.49994 9.05175 5.50047 9.96338 5.50049H10.8306C10.8262 4.76021 10.8105 4.19644 10.7495 3.74365C10.6769 3.20537 10.5475 2.8767 10.3413 2.62549C10.2514 2.51598 10.151 2.41558 10.0415 2.32568C9.77657 2.10826 9.42542 1.97585 8.83252 1.90576C8.22859 1.83438 7.44152 1.8335 6.3335 1.8335Z" fill="white"/>
</svg>
