<svg width="16" height="16" viewBox="0 0 16 16" fill="none" xmlns="http://www.w3.org/2000/svg">
<path d="M8.36853 15.1567C12.1499 14.9643 15.1664 11.8279 15.1664 7.99951C15.1662 4.04777 11.9521 0.833672 8.00037 0.833496C4.04847 0.833496 0.83355 4.04766 0.833374 7.99951C0.833374 11.9515 4.04837 15.1665 8.00037 15.1665L8.36853 15.1567ZM2.3656 5.49951C3.17728 3.67779 4.84562 2.32067 6.85681 1.94189C6.29659 2.72134 5.57481 3.94283 5.16248 5.49951H2.3656ZM10.8383 5.49951C10.4257 3.9423 9.70227 2.72131 9.14197 1.94189C11.1538 2.32036 12.8233 3.67729 13.6351 5.49951H10.8383ZM6.20642 5.49951C6.68969 3.88481 7.52655 2.6851 8.00037 2.09521C8.47421 2.68563 9.31014 3.88535 9.79333 5.49951H6.20642ZM11.0492 9.49951C11.1241 9.0235 11.1674 8.52266 11.1674 7.99951C11.1674 7.47631 11.1241 6.97556 11.0492 6.49951H13.9808C14.1014 6.97994 14.1664 7.48225 14.1664 7.99951C14.1664 8.51667 14.1013 9.01917 13.9808 9.49951H11.0492ZM5.96814 9.49951C5.8834 9.02529 5.83337 8.52403 5.83337 7.99951C5.83338 7.47496 5.88338 6.97379 5.96814 6.49951H10.0316C10.1164 6.97379 10.1664 7.47492 10.1664 7.99951C10.1664 8.52404 10.1164 9.02525 10.0316 9.49951H5.96814ZM2.01892 9.49951C1.89842 9.01919 1.83337 8.51664 1.83337 7.99951C1.8334 7.48227 1.89835 6.97992 2.01892 6.49951H4.95154C4.87666 6.97556 4.83338 7.47631 4.83337 7.99951C4.83337 8.52266 4.87666 9.0235 4.95154 9.49951H2.01892ZM6.85779 14.0591C4.84574 13.6806 3.17631 12.322 2.36462 10.4995H5.16248C5.57514 12.0573 6.29739 13.2797 6.85779 14.0591ZM8.00037 13.9048C7.52654 13.3144 6.68968 12.1141 6.20642 10.4995H9.79333C9.31008 12.1143 8.4742 13.3149 8.00037 13.9048ZM9.14294 14.0591C9.70336 13.2797 10.4257 12.0574 10.8383 10.4995H13.6351C12.8235 12.3218 11.1547 13.6804 9.14294 14.0591Z" fill="#AAAAAA"/>
</svg>
