<svg width="16" height="16" viewBox="0 0 16 16" fill="none" xmlns="http://www.w3.org/2000/svg">
<path d="M11.5476 1.83887C12.0876 1.88553 12.448 2.24608 13.1013 2.89941C13.7479 3.55271 14.1085 3.90631 14.1619 4.44629C14.1685 4.53275 14.1685 4.6325 14.1619 4.72559C14.1152 5.25887 13.7547 5.61908 13.1082 6.26562L6.53491 12.8457C5.91491 13.459 5.59469 13.786 5.14136 13.9727C4.67477 14.1659 4.20147 14.166 3.34839 14.166H2.33472C2.06144 14.166 1.8348 13.9393 1.83472 13.666V12.6523C1.83472 11.7993 1.83487 11.3261 2.02808 10.8662C2.22141 10.3995 2.55503 10.0727 3.15503 9.47266L8.64331 3.98438C8.64476 3.98289 8.64575 3.98096 8.64722 3.97949C8.64872 3.97799 8.65058 3.97609 8.6521 3.97461L9.72827 2.89941C10.3748 2.24622 10.7345 1.88565 11.281 1.83887C11.3675 1.83221 11.4611 1.83224 11.5476 1.83887ZM3.85522 10.1797C3.30189 10.7264 3.0545 10.9796 2.94116 11.2529C2.82801 11.5262 2.82788 11.9062 2.82788 12.6523V13.166H3.34155C4.09466 13.166 4.46801 13.166 4.75464 13.0527C5.02129 12.9394 5.28141 12.6859 5.79468 12.166L10.9607 6.99902L8.99487 5.0332L3.85522 10.1797ZM11.3611 2.82617C11.1744 2.83979 10.8949 3.12653 10.4285 3.59961L9.70093 4.32617L11.6667 6.29199L12.3943 5.56543C12.8476 5.11216 13.1485 4.81265 13.1619 4.62598V4.5459C13.1419 4.35262 12.8415 4.05273 12.3884 3.59961C11.9352 3.1464 11.6349 2.84632 11.4548 2.82617H11.3611Z" fill="#AAAAAA"/>
</svg>
