<svg width="20" height="20" viewBox="0 0 20 20" fill="none" xmlns="http://www.w3.org/2000/svg">
<path d="M10 1.875C10.3452 1.875 10.625 2.15482 10.625 2.5C10.625 2.84518 10.3452 3.125 10 3.125C8.2147 3.125 6.93857 3.12647 5.96875 3.25684C5.01688 3.38481 4.45373 3.62634 4.04004 4.04004C3.62634 4.45373 3.38481 5.01688 3.25684 5.96875C3.12647 6.93857 3.125 8.2147 3.125 10C3.125 11.7853 3.12647 13.0614 3.25684 14.0312C3.38481 14.9831 3.62634 15.5463 4.04004 15.96C4.45373 16.3737 5.01688 16.6152 5.96875 16.7432C6.93857 16.8735 8.2147 16.875 10 16.875C11.7853 16.875 13.0614 16.8735 14.0312 16.7432C14.9831 16.6152 15.5463 16.3737 15.96 15.96C16.3737 15.5463 16.6152 14.9831 16.7432 14.0312C16.8735 13.0614 16.875 11.7853 16.875 10C16.875 9.65482 17.1548 9.375 17.5 9.375C17.8452 9.375 18.125 9.65482 18.125 10V10.0479C18.125 11.7752 18.1253 13.1355 17.9824 14.1982C17.8358 15.2887 17.5284 16.1591 16.8438 16.8438C16.1591 17.5284 15.2887 17.8358 14.1982 17.9824C13.1355 18.1253 11.7752 18.125 10.0479 18.125H9.95215C8.22481 18.125 6.86447 18.1253 5.80176 17.9824C4.71135 17.8358 3.84087 17.5284 3.15625 16.8438C2.47163 16.1591 2.1642 15.2887 2.01758 14.1982C1.8747 13.1355 1.87499 11.7752 1.875 10.0479V9.95215C1.87499 8.22481 1.8747 6.86447 2.01758 5.80176C2.1642 4.71135 2.47163 3.84087 3.15625 3.15625C3.84087 2.47163 4.71135 2.1642 5.80176 2.01758C6.86447 1.8747 8.22481 1.87499 9.95215 1.875H10ZM14.2383 2.54199C15.1275 1.6529 16.5688 1.65282 17.458 2.54199C18.3472 3.43117 18.3471 4.87249 17.458 5.76172L11.9287 11.292C11.9062 11.3145 11.8834 11.3363 11.8613 11.3584C11.0543 12.1656 10.5613 12.6597 9.9541 12.999C9.61545 13.1882 9.10178 13.3537 8.57617 13.5C8.03534 13.6505 7.41238 13.798 6.81836 13.9395L6.81152 13.9414C6.60039 13.9917 6.37808 13.9289 6.22461 13.7754C6.07114 13.6219 6.00832 13.3996 6.05859 13.1885L6.06055 13.1816C6.20198 12.5876 6.35048 11.9646 6.50098 11.4238C6.64723 10.8983 6.81178 10.3845 7.00098 10.0459C7.34029 9.43868 7.83442 8.94565 8.6416 8.13867C8.66366 8.11662 8.68548 8.09381 8.70801 8.07129L14.2383 2.54199ZM9.5918 8.95508C8.69671 9.85016 8.33732 10.2186 8.09277 10.6562C7.98548 10.8484 7.85339 11.2268 7.70508 11.7598C7.64171 11.9875 7.57791 12.2317 7.51465 12.4854C7.76827 12.4221 8.01249 12.3583 8.24023 12.2949C8.77319 12.1466 9.15162 12.0145 9.34375 11.9072C9.78139 11.6627 10.1498 11.3033 11.0449 10.4082L14.9639 6.48828L13.5117 5.03613L9.5918 8.95508ZM16.5742 3.42578C16.1732 3.02477 15.5231 3.02485 15.1221 3.42578L14.3955 4.15234L15.8477 5.60449L16.5742 4.87793C16.9752 4.47685 16.9752 3.8268 16.5742 3.42578Z" fill="white"/>
</svg>
