<svg width="160" height="48" viewBox="0 0 160 48" fill="none" xmlns="http://www.w3.org/2000/svg">
<g clip-path="url(#clip0_6_23)">
<path d="M98.464 41.304C81.3048 43.554 83.3252 28.218 76.928 23.598H78.3852C83.5292 23.598 84.938 19.524 84.938 15.528C84.938 11.532 83.1936 8.07 78.3852 8.07H75.5492L75.5312 35.274C75.5312 37.704 76.3288 39.588 77.8036 41.19H65.6748C67.1496 39.588 67.9468 37.71 67.9468 35.274H67.9588V12.678C67.9588 10.248 67.1616 8.364 65.6864 6.762H81.9404C89.1708 6.762 92.882 10.656 92.882 15.522C92.882 20.388 90.1184 24.684 82.7316 24.144C88.9252 24.894 91.4432 35.808 98.47 41.304H98.464ZM153.041 33.564L145.271 21.486C147.759 18.012 153.826 10.524 158.904 6.768H147.549C149.186 10.458 147.022 15.93 144.312 19.992L140.528 14.064C138.76 11.238 138.364 8.862 139.491 6.768L124.574 6.78C124.574 6.78 127.938 8.472 131.757 14.406L138.586 25.014C136.194 28.404 128.945 37.332 123.729 41.19H135.366C133.316 36.672 136.116 30.906 139.617 26.61L144.276 33.9C146.044 36.726 146.44 39.102 145.313 41.196H159.606V41.184C157.244 39.606 155.607 37.452 153.047 33.558L153.041 33.564ZM111.972 42C101.612 42 94.5908 34.266 94.5908 24C94.5908 13.734 101.612 6 111.972 6C122.332 6 129.299 13.734 129.299 24C129.299 34.266 122.278 42 111.972 42ZM121.223 24C121.223 14.442 117.626 7.314 111.966 7.314C106.306 7.314 102.679 14.442 102.679 24C102.679 33.558 106.258 40.686 111.966 40.686C117.674 40.686 121.223 33.558 121.223 24Z" fill="#D7B58C"/>
<path d="M23.982 24V0C37.226 0 47.964 10.746 47.964 24H23.982ZM23.982 0C10.7379 0 0 10.746 0 24C13.244 24 23.982 13.254 23.982 0ZM23.982 48C37.226 48 47.964 37.254 47.964 24C34.7199 24 23.982 34.746 23.982 48ZM0 24C0 37.254 10.7379 48 23.982 48V24H0Z" fill="#D7B58C"/>
</g>
<defs>
<clipPath id="clip0_6_23">
<rect width="160" height="48" fill="white"/>
</clipPath>
</defs>
</svg>
