<svg width="16" height="16" viewBox="0 0 16 16" fill="none" xmlns="http://www.w3.org/2000/svg">
<path d="M7.33333 0.666504C3.65143 0.666504 0.666336 3.6516 0.666336 7.3335C0.666512 11.0152 3.65154 13.9995 7.33333 13.9995C8.9344 13.9995 10.4028 13.4343 11.5521 12.4937L14.1956 15.1382C14.456 15.3982 14.8778 15.3983 15.138 15.1382C15.3984 14.8778 15.3984 14.4552 15.138 14.1948L12.4954 11.5513C13.4355 10.4022 14.0002 8.93389 14.0003 7.3335C14.0003 3.6516 11.0152 0.666504 7.33333 0.666504ZM7.33333 1.99951C10.2788 1.99951 12.6663 4.38798 12.6663 7.3335C12.6662 10.2789 10.2787 12.6665 7.33333 12.6665C4.38792 12.6665 2.0005 10.2789 2.00032 7.3335C2.00032 4.38798 4.38781 1.99951 7.33333 1.99951Z" fill="white"/>
</svg>
