<svg width="16" height="16" viewBox="0 0 16 16" fill="none" xmlns="http://www.w3.org/2000/svg">
<path d="M12.1016 4.17627C12.7261 4.30694 13.1909 4.53356 13.5635 4.88818C14.4985 5.78017 14.499 7.05204 14.499 9.58643C14.499 12.121 14.499 13.3927 13.5645 14.2847C12.6398 15.1667 11.311 15.1665 8.66504 15.1665H7.33301C4.688 15.1665 3.35986 15.1665 2.43457 14.2847C1.49991 13.3927 1.5 12.1204 1.5 9.58643C1.5 7.05243 1.4999 5.78018 2.43457 4.88818C2.80789 4.53355 3.27283 4.30791 3.89746 4.17725C4.16797 4.12132 4.43242 4.29355 4.48926 4.56396C4.54592 4.83396 4.37223 5.10007 4.10156 5.15674C3.66125 5.24873 3.35925 5.38961 3.12402 5.61279C2.49936 6.20879 2.49902 7.33776 2.49902 9.58643C2.49902 11.8351 2.49967 12.9641 3.125 13.5601C3.76034 14.166 4.95437 14.1665 7.33301 14.1665H8.66602C11.0447 14.1665 12.2394 14.1661 12.874 13.5601C13.4992 12.964 13.499 11.8349 13.499 9.58643C13.499 7.33802 13.4991 6.20885 12.874 5.61279C12.6394 5.38946 12.3378 5.24843 11.8965 5.15576C11.6266 5.09903 11.4539 4.83451 11.5098 4.56396C11.5664 4.29396 11.8309 4.12027 12.1016 4.17627ZM8.04785 0.833496C8.25292 0.84357 8.45721 0.926492 8.62305 1.06689C9.24915 1.59908 10.3379 2.90711 10.3857 2.96533C10.5617 3.1779 10.532 3.49339 10.3203 3.66943C10.1076 3.8461 9.79221 3.81667 9.61621 3.604C9.60155 3.58665 9.0393 2.91045 8.51855 2.35986L8.50098 9.3335C8.50031 9.60943 8.27622 9.83242 8.00098 9.83252L8 9.8335H7.99902C7.72302 9.83283 7.49933 9.60754 7.5 9.33154L7.51758 2.32275C6.98566 2.88193 6.39583 3.5913 6.38477 3.60498C6.2081 3.81765 5.89333 3.84708 5.68066 3.67041C5.46811 3.4944 5.43863 3.17894 5.61523 2.96631C5.66123 2.91098 6.75093 1.60158 7.37695 1.06885C7.37895 1.06685 7.38179 1.06432 7.38379 1.06299C7.57771 0.904483 7.80422 0.824855 8.03809 0.833496H8.04785Z" fill="white"/>
</svg>
