<svg width="16" height="16" viewBox="0 0 16 16" fill="none" xmlns="http://www.w3.org/2000/svg">
<path d="M8.02915 2.1665C9.0976 2.1665 9.93915 2.16649 10.6088 2.23708C11.2934 2.30924 11.8556 2.45965 12.3409 2.79947C12.6754 3.03365 12.9663 3.32454 13.2004 3.65899C13.5403 4.14431 13.6907 4.70656 13.7628 5.39115C13.8334 6.06077 13.8334 6.90231 13.8334 7.97075V8.02893C13.8334 9.09736 13.8334 9.93891 13.7628 10.6085C13.6907 11.2931 13.5403 11.8554 13.2004 12.3407C12.9663 12.6751 12.6754 12.966 12.3409 13.2002C11.8556 13.54 11.2934 13.6904 10.6088 13.7626C9.93915 13.8332 9.09761 13.8332 8.02917 13.8332H7.97099C6.90256 13.8332 6.06101 13.8332 5.39139 13.7626C4.7068 13.6904 4.14455 13.54 3.65923 13.2002C3.32479 12.966 3.0339 12.6751 2.79972 12.3407C2.45989 11.8554 2.30948 11.2931 2.23732 10.6085C2.16674 9.9389 2.16674 9.09735 2.16675 8.02891V7.97077C2.16674 6.90232 2.16674 6.06077 2.23732 5.39115C2.30948 4.70656 2.45989 4.14431 2.79972 3.65899C3.0339 3.32454 3.32479 3.03365 3.65923 2.79947C4.14455 2.45965 4.7068 2.30924 5.39139 2.23708C6.06102 2.16649 6.90257 2.1665 7.97101 2.1665H8.02915Z" fill="white"/>
</svg>
