<svg width="16" height="16" viewBox="0 0 16 16" fill="none" xmlns="http://www.w3.org/2000/svg">
<path d="M9.04932 1.8374C10.7093 1.8374 11.5431 1.83766 12.2964 2.271C12.3695 2.3109 12.4428 2.35726 12.5093 2.40381C13.2226 2.89048 13.5897 3.68434 14.2563 5.11768C15.0363 6.79083 15.423 7.63086 14.9897 8.41748C14.9364 8.50414 14.8826 8.59042 14.8159 8.67041C14.2626 9.36373 13.323 9.36377 11.4497 9.36377H11.1831C10.8898 9.36377 10.5896 9.36445 10.5229 9.39111C10.4897 9.41112 10.4632 9.44438 10.4565 9.46436C10.4501 9.53805 10.5368 9.80445 10.6167 10.0708L10.7964 10.644C10.8431 10.804 10.8692 10.8912 10.8892 10.9712C11.0824 11.7578 10.9566 12.5778 10.5366 13.271C10.4966 13.3443 10.4431 13.4175 10.3364 13.5708C10.2698 13.6708 10.2291 13.7242 10.1958 13.7642C9.76245 14.2506 9.01636 14.2971 8.52979 13.8706C8.49645 13.8439 8.45596 13.7976 8.35596 13.6909L5.62939 10.6704C4.92956 9.89726 4.57627 9.51032 4.36963 8.97705C4.35489 8.93899 4.34328 8.90018 4.33057 8.86182C3.88779 9.2596 3.30421 9.50439 2.6626 9.50439C1.64941 9.50422 0.82959 8.68363 0.82959 7.67041V3.67041C0.829787 2.65735 1.64954 1.83758 2.6626 1.8374C3.48034 1.8374 4.20443 2.23273 4.66064 2.84033C4.73259 2.73759 4.81544 2.64116 4.90967 2.55029C5.64963 1.83723 6.6698 1.8374 8.70947 1.8374H9.04932ZM8.71631 2.8374C6.943 2.8374 6.05654 2.83768 5.60986 3.271C5.18987 3.68432 5.16943 4.43738 5.16943 6.25732V6.90381C5.16943 7.81048 5.17006 8.27118 5.31006 8.62451C5.45015 8.98428 5.75688 9.32405 6.37646 10.0103L9.12256 13.0503C9.15589 13.0836 9.17661 13.1112 9.18994 13.1245C9.22319 13.1575 9.26358 13.1704 9.31006 13.1704L9.31592 13.1841C9.36251 13.1841 9.41636 13.1644 9.44971 13.1245C9.46971 13.1045 9.48979 13.0703 9.52979 13.0103C9.60959 12.8906 9.65665 12.8309 9.68994 12.771C9.97661 12.3043 10.0559 11.7508 9.9292 11.2241C9.91587 11.1575 9.89008 11.0906 9.8501 10.9507L9.66943 10.3706C9.50284 9.82419 9.40941 9.52411 9.50928 9.19092C9.58928 8.93092 9.77008 8.69696 10.0034 8.55029C10.2899 8.37068 10.6098 8.37061 11.1958 8.37061H11.4634C12.9164 8.37061 13.796 8.37026 14.0493 8.05029C14.0759 8.01699 14.1026 7.97696 14.1226 7.93701C14.309 7.59028 13.9492 6.82405 13.356 5.5376C12.7427 4.22443 12.4429 3.56433 11.9497 3.23096C11.9031 3.19765 11.8499 3.16386 11.8032 3.13721C11.2832 2.83721 10.5362 2.8374 9.05615 2.8374H8.71631ZM2.6626 2.8374C2.20287 2.83758 1.82979 3.21069 1.82959 3.67041V7.67041C1.82959 8.1303 2.20275 8.50422 2.6626 8.50439C3.48917 8.50439 4.16244 7.83093 4.1626 7.00439V4.3374C4.16258 3.51075 3.48925 2.8374 2.6626 2.8374Z" fill="white"/>
</svg>
