<svg width="16" height="16" viewBox="0 0 16 16" fill="none" xmlns="http://www.w3.org/2000/svg">
<path fill-rule="evenodd" clip-rule="evenodd" d="M8.53007 2.12654C9.01674 1.69987 9.7634 1.74654 10.1967 2.23321C10.2301 2.27321 10.2701 2.32654 10.3368 2.42654C10.3541 2.45093 10.3694 2.47331 10.3841 2.49397C10.4601 2.60321 10.5034 2.66487 10.5367 2.72654C10.9567 3.41987 11.0834 4.23987 10.8901 5.02654C10.8754 5.08645 10.8567 5.1501 10.8287 5.24549C10.8187 5.27747 10.8087 5.31303 10.7967 5.35321L10.6167 5.92654C10.6041 5.96965 10.5908 6.01275 10.5781 6.05504C10.5114 6.27437 10.4514 6.47173 10.4567 6.53321C10.4634 6.55321 10.4901 6.58654 10.5234 6.60654C10.5901 6.63321 10.8901 6.63321 11.1834 6.63321L11.8512 6.63349C13.4606 6.63701 14.3044 6.68456 14.8167 7.32655C14.8834 7.40655 14.9367 7.49322 14.9901 7.57989C15.4234 8.36655 15.0367 9.20655 14.2567 10.8799L14.2474 10.9002C13.5867 12.3208 13.2201 13.1088 12.5101 13.5932C12.4434 13.6399 12.37 13.6866 12.2967 13.7266C11.5434 14.1599 10.71 14.1599 9.05005 14.1599L8.49536 14.1599C6.59756 14.159 5.62365 14.1344 4.91007 13.4466C4.81674 13.3565 4.73474 13.2611 4.66341 13.1594C4.20741 13.7668 3.48074 14.1599 2.66341 14.1599C1.65008 14.1599 0.830078 13.3398 0.830078 12.3265V8.32649C0.830078 7.31315 1.65008 6.49317 2.66341 6.49317C3.30341 6.49317 3.88808 6.73422 4.33008 7.13042C4.34274 7.09342 4.35608 7.05662 4.37008 7.01989C4.57408 6.49288 4.92205 6.10909 5.60539 5.35396L5.63005 5.32654L8.35673 2.30654C8.38406 2.27756 8.40673 2.25301 8.42607 2.23209C8.47807 2.17599 8.50607 2.14596 8.53007 2.12654ZM2.66341 7.49315C2.20341 7.49315 1.83008 7.86649 1.83008 8.32649V12.3265C1.83008 12.7865 2.20341 13.1598 2.66341 13.1598C3.49008 13.1598 4.16341 12.4865 4.16341 11.6598V8.99315C4.16341 8.16649 3.49008 7.49315 2.66341 7.49315ZM9.31673 2.81321L9.31006 2.82654C9.26339 2.82654 9.2234 2.83987 9.19006 2.87321C9.18473 2.87837 9.17872 2.88554 9.17139 2.89432C9.15939 2.90821 9.14408 2.92612 9.12341 2.94654L6.37675 5.98654C5.75675 6.67322 5.45006 7.01322 5.31006 7.37322C5.17006 7.72649 5.17008 8.18635 5.17008 9.09269V9.73989C5.17008 11.5599 5.19007 12.3132 5.61007 12.7266C6.021 13.1252 6.80436 13.1571 8.30794 13.1597L9.26322 13.1599C10.6073 13.1592 11.3081 13.1456 11.8034 12.8599C11.8501 12.8332 11.9034 12.7999 11.9501 12.7666C12.4321 12.441 12.7294 11.8041 13.314 10.5515C13.328 10.5213 13.3421 10.4908 13.3567 10.4599L13.3887 10.3903C13.9627 9.14549 14.3067 8.40022 14.1234 8.05989C14.1034 8.01989 14.0767 7.97989 14.05 7.94655C13.8197 7.65564 13.0715 7.6292 11.8455 7.62679L11.0555 7.62645C10.557 7.6253 10.2662 7.61155 10.0034 7.44655C9.77008 7.29989 9.59005 7.06655 9.51005 6.80655C9.41138 6.47624 9.50207 6.17867 9.66541 5.64141L9.67008 5.62654L9.85006 5.04654C9.86739 4.98728 9.88142 4.94115 9.89408 4.90261C9.91008 4.8501 9.92272 4.81165 9.93005 4.77321C10.0567 4.24654 9.97673 3.69321 9.69006 3.22654C9.6694 3.18945 9.64407 3.15236 9.60807 3.10109C9.58607 3.06943 9.56074 3.03236 9.53007 2.98654C9.5214 2.97337 9.51338 2.96149 9.50671 2.95075C9.48138 2.91255 9.46607 2.88882 9.45007 2.87321C9.41674 2.83321 9.3634 2.81321 9.31673 2.81321Z" fill="white"/>
</svg>
